# xmcd CD database file
#
# Track frame offsets:
#	150
#	13926
#	28582
#	44465
#	57357
#	70018
#	83292
#	97876
#	111317
#	125678
#	139656
#	152122
#	163595
#	176339
#	190262
#	203846
#	218503
#	232168
#	243477
#	258091
#
# Disc length: 3603 seconds
#
# Revision: 0
# Processed by: cddbd v1.5.2PL0 Copyright (c) Steve Scherf et al.
# Submitted via: CDex 1.70beta2
#
DISCID=0d0e1114
DTITLE=Sonny Boy Williamson - 20 Légendes du Blues CD 14
DYEAR=2008
DGENRE=Blues
TTITLE0=Good Morning Little School Girl
TTITLE1=Suzie Q
TTITLE2=Decoration Blues
TTITLE3=Tell Me Baby
TTITLE4=I've Been Dealing With The Devil
TTITLE5=War Time Blues
TTITLE6=Sloppy Drunk Blues
TTITLE7=Whiskey Headed Blues
TTITLE8=Goodbye Red
TTITLE9=Blue Bird Blues
TTITLE10=Check Up On My Baby
TTITLE11=Black Panther Blues
TTITLE12=Early In The Morning
TTITLE13=Wonderful Time
TTITLE14=The Big Boat
TTITLE15=Low Down Ways
TTITLE16=Western Union Man
TTITLE17=Polly Put Your Kettle On
TTITLE18=You're An Old Lady
TTITLE19=She Don't Love Me That Way
EXTD=YEAR: 2008
EXTT0=
EXTT1=
EXTT2=
EXTT3=
EXTT4=
EXTT5=
EXTT6=
EXTT7=
EXTT8=
EXTT9=
EXTT10=
EXTT11=
EXTT12=
EXTT13=
EXTT14=
EXTT15=
EXTT16=
EXTT17=
EXTT18=
EXTT19=
PLAYORDER=
